<svg width="19" height="19" viewBox="0 0 19 19" fill="none" xmlns="http://www.w3.org/2000/svg">
<path d="M9.5 19C14.7467 19 19 14.7467 19 9.5C19 4.25329 14.7467 0 9.5 0C4.25329 0 0 4.25329 0 9.5C0 14.7467 4.25329 19 9.5 19Z" fill="url(#paint0_linear)"/>
<path d="M9.49987 0C9.24895 0 9.00039 0.0099098 8.75439 0.0289843C13.6526 0.409208 17.5089 4.50419 17.5089 9.5C17.5089 14.4958 13.6526 18.5908 8.75439 18.971C9.00039 18.9901 9.24895 19 9.49987 19C14.7466 19 18.9999 14.7467 18.9999 9.5C18.9999 4.25328 14.7466 0 9.49987 0Z" fill="url(#paint1_linear)"/>
<path d="M9.50002 16.21C13.2058 16.21 16.21 13.2058 16.21 9.50002C16.21 5.7942 13.2058 2.79004 9.50002 2.79004C5.7942 2.79004 2.79004 5.7942 2.79004 9.50002C2.79004 13.2058 5.7942 16.21 9.50002 16.21Z" fill="url(#paint2_linear)"/>
<path d="M9.49987 2.79004C9.24784 2.79004 8.9992 2.80442 8.75439 2.83147C12.1093 3.20238 14.7189 6.04623 14.7189 9.49998C14.7189 12.9537 12.1093 15.7976 8.75439 16.1685C8.9992 16.1956 9.24784 16.2099 9.49987 16.2099C13.2057 16.2099 16.2098 13.2058 16.2098 9.49994C16.2098 5.79412 13.2057 2.79004 9.49987 2.79004Z" fill="url(#paint3_linear)"/>
<path d="M10.117 8.4823V6.62499C10.9439 6.68858 11.1856 7.09567 11.6053 7.09567C12.1651 7.09567 12.394 6.39598 12.394 6.05253C12.394 5.17477 10.9056 4.97124 10.1169 4.9458V4.62775C10.1169 4.44968 9.87522 4.2843 9.63355 4.2843C9.35369 4.2843 9.15017 4.44968 9.15017 4.62775V4.98395C7.80173 5.17473 6.60592 5.95075 6.60592 7.56635C6.60592 9.19465 7.97981 9.74166 9.15017 10.1869V12.2477C8.20881 12.0823 7.77625 11.3318 7.24194 11.3318C6.75856 11.3318 6.37695 11.9679 6.37695 12.4004C6.37695 13.2145 7.62361 14.0032 9.15017 14.0541V14.3721C9.15017 14.5502 9.35369 14.7156 9.63355 14.7156C9.87526 14.7156 10.1169 14.5502 10.1169 14.3721V14.0032C11.6053 13.7615 12.623 12.8074 12.623 11.23C12.623 9.51269 11.2746 8.91479 10.117 8.4823ZM9.27736 8.17699C8.79398 7.97347 8.46319 7.74446 8.46319 7.37556C8.46319 7.07026 8.70494 6.7777 9.27736 6.66318V8.17699ZM9.98975 12.235V10.5304C10.4477 10.7466 10.7657 11.0138 10.7657 11.4336C10.7658 11.8916 10.4223 12.1332 9.98975 12.235Z" fill="url(#paint4_linear)"/>
<defs>
<linearGradient id="paint0_linear" x1="-0.447059" y1="9.5" x2="18.7817" y2="9.5" gradientUnits="userSpaceOnUse">
<stop stop-color="#FFF9DF"/>
<stop offset="0.593" stop-color="#FFE177"/>
<stop offset="1" stop-color="#FEB137"/>
</linearGradient>
<linearGradient id="paint1_linear" x1="1.78809" y1="9.5" x2="17.2576" y2="9.5" gradientUnits="userSpaceOnUse">
<stop stop-color="#FFE177"/>
<stop offset="1" stop-color="#FEB137"/>
</linearGradient>
<linearGradient id="paint2_linear" x1="5.06669" y1="9.50002" x2="13.5336" y2="9.50002" gradientUnits="userSpaceOnUse">
<stop stop-color="#FFE177"/>
<stop offset="1" stop-color="#FEB137"/>
</linearGradient>
<linearGradient id="paint3_linear" x1="7.15281" y1="9.50002" x2="17.5909" y2="9.50002" gradientUnits="userSpaceOnUse">
<stop stop-color="#FEB137"/>
<stop offset="1" stop-color="#ECA026"/>
</linearGradient>
<linearGradient id="paint4_linear" x1="4.80949" y1="9.49999" x2="13.6401" y2="9.49999" gradientUnits="userSpaceOnUse">
<stop stop-color="#FFF9DF"/>
<stop offset="0.593" stop-color="#FFE177"/>
<stop offset="1" stop-color="#FEB137"/>
</linearGradient>
</defs>
</svg>
