<svg width="21" height="21" viewBox="0 0 21 21" fill="none" xmlns="http://www.w3.org/2000/svg">
<path d="M17.458 4.96302C15.792 3.62339 13.1565 3.39677 13.0445 3.38714C12.8686 3.37227 12.7015 3.47202 12.6298 3.63302C12.6245 3.64352 12.5667 3.77564 12.5029 3.98127C13.6045 4.16677 14.9581 4.54127 16.1831 5.30164C16.3791 5.42327 16.4395 5.68139 16.3179 5.87827C16.2391 6.00602 16.1018 6.07602 15.9618 6.07602C15.8865 6.07602 15.8104 6.05589 15.7413 6.01302C13.636 4.70752 11.0057 4.64189 10.5 4.64189C9.99425 4.64189 7.36313 4.70752 5.25962 6.01302C5.06275 6.13552 4.8055 6.07427 4.683 5.87827C4.5605 5.68139 4.62175 5.42414 4.81775 5.30164C6.04275 4.54214 7.3955 4.16677 8.498 3.98127C8.43325 3.77477 8.3755 3.64352 8.37113 3.63302C8.2985 3.47202 8.13225 3.37052 7.9555 3.38802C7.84438 3.39677 5.20887 3.62339 3.52012 4.98227C2.63812 5.79689 0.875 10.5639 0.875 14.6851C0.875 14.7578 0.89425 14.8295 0.930125 14.8925C2.14725 17.0301 5.467 17.5901 6.22388 17.6146C6.22825 17.6146 6.23263 17.6146 6.237 17.6146C6.37087 17.6146 6.49687 17.5508 6.57562 17.4423L7.34125 16.3905C5.27713 15.8568 4.22275 14.9511 4.1615 14.8978C3.98825 14.7446 3.97163 14.4804 4.12475 14.3071C4.27788 14.1339 4.54125 14.1173 4.7145 14.2695C4.73988 14.2923 6.6815 15.9399 10.5 15.9399C14.3255 15.9399 16.2671 14.2853 16.2864 14.2686C16.4596 14.1181 16.7239 14.1339 16.8761 14.308C17.0284 14.4813 17.0118 14.7446 16.8394 14.8969C16.7781 14.9511 15.7238 15.8559 13.6596 16.3896L14.4253 17.4414C14.504 17.5499 14.63 17.6138 14.7639 17.6138C14.7682 17.6138 14.7726 17.6138 14.777 17.6138C15.5339 17.5901 18.8536 17.0301 20.0707 14.8916C20.1057 14.8286 20.125 14.7578 20.125 14.6851C20.125 10.5639 18.3619 5.79689 17.458 4.96302ZM7.77962 13.0113C6.97112 13.0113 6.31488 12.2614 6.31488 11.3374C6.31488 10.4134 6.97025 9.66352 7.77962 9.66352C8.589 9.66352 9.24437 10.4134 9.24437 11.3374C9.24437 12.2614 8.589 13.0113 7.77962 13.0113ZM13.2204 13.0113C12.4119 13.0113 11.7556 12.2614 11.7556 11.3374C11.7556 10.4134 12.411 9.66352 13.2204 9.66352C14.0289 9.66352 14.6851 10.4134 14.6851 11.3374C14.6851 12.2614 14.0289 13.0113 13.2204 13.0113Z" fill="#3B3B50" fill-opacity="0.75"/>
</svg>
