<?xml version="1.0" ?><svg id="Layer_1" style="enable-background:new 0 0 120 120;" version="1.1" viewBox="0 0 120 120" xml:space="preserve" xmlns="http://www.w3.org/2000/svg" xmlns:xlink="http://www.w3.org/1999/xlink"><style type="text/css">
	.st0{fill:#F9F9F9;}
	.st1{fill:#FFC573;}
	.st2{fill:#DDA35E;}
	.st3{fill:#FFE68B;}
	.st4{fill:#A7D8FF;}
</style><g><path class="st0" d="M26.5,107.4h67c5.2,0,9.4-4.2,9.4-9.4V34.4c0-7.1-5.7-12.8-12.8-12.8H29.9c-7.1,0-12.8,5.7-12.8,12.8V98   C17.1,103.2,21.3,107.4,26.5,107.4z"/><path class="st1" d="M17.1,33.4v13.5h85.7V33.4c0-6.5-5.3-11.7-11.7-11.7H28.9C22.4,21.6,17.1,26.9,17.1,33.4z"/><g><ellipse class="st2" cx="42" cy="34.9" rx="5.3" ry="5.3" transform="matrix(0.7071 -0.7071 0.7071 0.7071 -12.3403 39.9119)"/><ellipse class="st2" cx="60" cy="34.9" rx="5.3" ry="5.3" transform="matrix(0.9732 -0.2298 0.2298 0.9732 -6.4023 14.7176)"/><ellipse class="st2" cx="78" cy="34.9" rx="5.3" ry="5.3" transform="matrix(0.9732 -0.2298 0.2298 0.9732 -5.921 18.8514)"/></g><g><path class="st3" d="M42,12.6c-2.1,0-3.9,1.7-3.9,3.9v16.6c0,2.1,1.7,3.9,3.9,3.9s3.9-1.7,3.9-3.9V16.5    C45.9,14.4,44.1,12.6,42,12.6z"/><path class="st3" d="M78,12.6c-2.1,0-3.9,1.7-3.9,3.9v16.6c0,2.1,1.7,3.9,3.9,3.9s3.9-1.7,3.9-3.9V16.5    C81.9,14.4,80.1,12.6,78,12.6z"/><path class="st3" d="M60,12.6c-2.1,0-3.9,1.7-3.9,3.9v16.6c0,2.1,1.7,3.9,3.9,3.9s3.9-1.7,3.9-3.9V16.5    C63.9,14.4,62.1,12.6,60,12.6z"/></g><g><path class="st4" d="M78.9,93c-1.6-9-9.4-15.9-18.9-15.9c-9.5,0-17.3,6.8-18.9,15.9c-0.3,1.7,1.1,3.3,2.9,3.3h32    C77.8,96.3,79.2,94.7,78.9,93z"/><circle class="st4" cx="60" cy="66.1" r="8.8"/></g></g></svg>