<svg width="19" height="19" viewBox="0 0 19 19" fill="none" xmlns="http://www.w3.org/2000/svg">
<g clip-path="url(#clip0)">
<path d="M12.6719 7.2334V13.7668L17.5194 11.243L17.6165 10.2025L12.6719 7.2334Z" fill="#4895FF"/>
<path d="M12.6719 7.2334V13.7668L17.5194 11.243L17.6165 10.2025L12.6719 7.2334Z" fill="#424EDE"/>
<path d="M1.38818 8.71538L1.46981 9.75329L6.32799 12.2826V5.74921L1.38818 8.71538Z" fill="#4895FF"/>
<path d="M9.50113 0L5.21484 3.04973V4.08619L9.50116 6.70953L13.7849 4.08619V3.04984L9.50113 0Z" fill="#5ECEF4"/>
<path d="M13.7852 4.08619V3.04984L9.50146 0V6.70953H9.5015L13.7852 4.08619Z" fill="#4895FF"/>
<path d="M17.6165 10.2025L12.6719 12.5119V18.4434H16.8467L17.6165 10.2025Z" fill="#5ECEF4"/>
<path d="M17.6165 10.2025L12.6719 12.5119V18.4434H16.8467L17.6165 10.2025Z" fill="#4895FF"/>
<path d="M1.38818 8.71539L2.15383 18.4435H6.32799V11.0277L1.38818 8.71539Z" fill="#5ECEF4"/>
<path d="M13.7849 3.04985L9.50098 5.40446L5.21484 3.04974V18.4435H13.7849V3.04985Z" fill="#BEEBFA"/>
<path d="M13.7852 3.04987L9.50146 5.40436V18.4435H13.7852V3.04987Z" fill="#5ECEF4"/>
<path d="M0.856934 17.8869H18.1431V19H0.856934V17.8869Z" fill="#4895FF"/>
<path d="M9.50146 17.8869H18.1433V19H9.50146V17.8869Z" fill="#424EDE"/>
</g>
<defs>
<clipPath id="clip0">
<rect width="19" height="19" fill="white"/>
</clipPath>
</defs>
</svg>
