<svg width="26" height="26" viewBox="0 0 26 26" fill="none" xmlns="http://www.w3.org/2000/svg">
<path d="M23.3429 7.58334H19.7782C19.6327 7.58334 19.4899 7.62279 19.3651 7.69749C19.2402 7.77218 19.1379 7.87933 19.0691 8.00753C19.0691 8.00753 17.6474 10.6259 17.1907 11.5078C15.9622 13.8802 15.1666 13.1354 15.1666 12.0344V8.23786C15.1666 7.92061 15.0406 7.61636 14.8162 7.39203C14.5919 7.1677 14.2876 7.04168 13.9704 7.04168H11.2902C10.9252 7.01454 10.5594 7.08116 10.2274 7.23522C9.89536 7.38927 9.60826 7.62565 9.39331 7.92189C9.39331 7.92189 10.7543 7.70184 10.7543 9.5356C10.7543 9.99032 10.7777 11.2984 10.799 12.3956C10.8031 12.5573 10.7574 12.7163 10.6681 12.8512C10.5789 12.9861 10.4505 13.0904 10.3001 13.1499C10.1497 13.2095 9.98472 13.2215 9.82732 13.1843C9.66993 13.1471 9.52774 13.0625 9.41994 12.9419C8.32291 11.4162 7.4142 9.76344 6.71356 8.01971C6.65339 7.88927 6.55706 7.77883 6.43601 7.70148C6.31496 7.62413 6.17427 7.58313 6.03062 7.58334C5.25755 7.58334 3.71057 7.58334 2.79187 7.58334C2.70278 7.58274 2.61488 7.60377 2.53572 7.64463C2.45655 7.68549 2.38849 7.74496 2.33738 7.81793C2.28626 7.89089 2.25363 7.97518 2.24228 8.06354C2.23093 8.15191 2.2412 8.2417 2.27221 8.32522C3.25565 11.0228 7.49199 19.5 12.3274 19.5H14.3626C14.5758 19.5 14.7803 19.4153 14.9311 19.2645C15.0819 19.1137 15.1666 18.9092 15.1666 18.696V17.467C15.1666 17.3129 15.2117 17.1621 15.2963 17.0332C15.381 16.9044 15.5015 16.8031 15.643 16.7419C15.7845 16.6807 15.9408 16.6622 16.0926 16.6888C16.2445 16.7153 16.3853 16.7857 16.4977 16.8913L18.9336 19.18C19.1524 19.3856 19.4413 19.5 19.7415 19.5H22.9404C24.4832 19.5 24.4832 18.4294 23.642 17.601C23.05 17.018 20.9139 14.7663 20.9139 14.7663C20.7309 14.5768 20.6218 14.3281 20.6062 14.0652C20.5907 13.8022 20.6697 13.5424 20.829 13.3326C21.5194 12.4239 22.6488 10.9365 23.1278 10.2993C23.7825 9.4284 24.9674 7.58334 23.3429 7.58334Z" fill="#3B3B50" fill-opacity="0.75"/>
</svg>
